<?xml version="1.0" encoding="utf-8"?>
<!-- Generator: Adobe Illustrator 19.2.1, SVG Export Plug-In . SVG Version: 6.00 Build 0)  -->
<svg version="1.1" id="Layer_1" xmlns="http://www.w3.org/2000/svg" xmlns:xlink="http://www.w3.org/1999/xlink" x="0px" y="0px"
	 viewBox="0 0 1350 200" style="enable-background:new 0 0 1350 200;" xml:space="preserve">
<style type="text/css">
	.st0{fill:#D3242D;}
</style>
<title>gc-logo_horizontal-01</title>
<g>
	<g>
		<path d="M1213.7,136.3c0,4.6-3.8,8.4-8.6,8.4c-4.9,0-8.7-3.8-8.7-8.4c0-4.7,3.8-8.5,8.7-8.5
			C1209.9,127.9,1213.7,131.7,1213.7,136.3z M1211.5,136.3c0-3.6-2.9-6.5-6.4-6.5c-3.6,0-6.5,2.9-6.5,6.5c0,3.6,2.8,6.5,6.5,6.5
			C1208.7,142.8,1211.5,139.9,1211.5,136.3z M1208.8,134.9c0,1.3-0.9,2.1-2.4,2.3l2.5,2.9h-2.1l-2.3-2.9h-0.6v2.9h-1.8v-7.8h3.7
			C1207.6,132.4,1208.8,133.4,1208.8,134.9z M1203.8,134v1.9h1.8c0.8,0,1.3-0.3,1.3-1c0-0.6-0.5-1-1.3-1H1203.8z"/>
	</g>
	<g>
		<path d="M218.2,66.1l-15.4,15.1c-4.5-4.9-10.9-8-19.4-8c-14.5,0-24.9,10.9-24.9,26.7c0,17.4,11.5,27.2,25,27.2
			c12.9,0,20.4-5.7,22.9-16.4h-22.1V94.1h43.5c0.3,2.4,0.5,4.6,0.5,6.8c0,29-20.7,46-44,46c-27,0-48-18.6-48-46.9
			c0-27.5,20-47,48.2-47C198.8,53,210.3,57.9,218.2,66.1z"/>
		<path d="M304.3,145.3h-67.2V54.7h21.6v70.6h45.6V145.3z"/>
		<path class="st0" d="M404,100c0,27.1-19.8,47-47.8,47c-28,0-47.8-19.9-47.8-47c0-27.1,19.8-47,47.8-47C384.2,53,404,72.9,404,100z
			 M331,100c0,15.5,10.5,26.3,25.2,26.3c14.8,0,25.2-10.7,25.2-26.3c0-15.5-10.5-26.3-25.2-26.3C341.5,73.7,331,84.5,331,100z"/>
		<path d="M454.1,54.7c22.9,0,34.8,9,34.8,25.6c0,8.9-5.2,15.9-12.5,19.2c8,2.8,14.4,10.6,14.4,19.9c0,16.6-11.5,26-34.4,26h-41.2
			V54.7H454.1z M436.8,72.9v17.9h16.8c7.8,0,12.8-2.3,12.8-9c0-6.6-5-8.9-12.8-8.9H436.8z M436.8,108.8v18.4h18.5
			c8.3,0,13.2-2.5,13.2-9.3c0-6.6-4.9-9.1-13.2-9.1H436.8z"/>
		<path d="M586.6,145.3h-23l-6.9-19h-36l-6.9,19h-22.6L526,54.7h25.8L586.6,145.3z M527.7,106.7h22l-11-30.5L527.7,106.7z"/>
		<path d="M662,145.3h-67.2V54.7h21.6v70.6H662V145.3z"/>
		<path d="M779.9,74.8l-19,10.9c-4.7-7.7-12.2-12-21.6-12c-14.3,0-24.9,10.7-24.9,26.3c0,16.8,11.6,26.3,25,26.3
			c9.2,0,16.7-4.2,21.9-11.9l17.7,12.6c-8.3,12.4-22.1,20.1-39.4,20.1c-28,0-47.7-19.5-47.7-47s19.7-47,47.7-47
			C756.9,53,772.1,61.1,779.9,74.8z"/>
		<path d="M809.7,145.3h-21.6V54.7h21.6V145.3z"/>
		<path d="M895,74.8h-26.8v70.6h-21.6V74.8h-26.9V54.7H895V74.8z"/>
		<path d="M927.2,145.3h-21.6V54.7h21.6V145.3z"/>
		<path d="M1010.5,71.7l-44.5,54.2h44.5v19.5h-73.3v-17l44.5-54.2h-44.4V54.7h73.2V71.7z"/>
		<path d="M1090.3,145.3h-69.4V54.7h69.1v19.5h-47.5v15.7h44.7v19.4h-44.7v16.6h47.8V145.3z"/>
		<path d="M1184.4,145.3h-20.8L1122.4,90v55.3h-21.6V54.7h20.7l41.3,55.3V54.7h21.7V145.3z"/>
	</g>
</g>
</svg>
